<svg xmlns="http://www.w3.org/2000/svg" viewBox="0 0 64 64">
  <defs>
    <linearGradient id="g" x1="12" y1="10" x2="54" y2="54" gradientUnits="userSpaceOnUse">
      <stop offset="0" stop-color="#3b82f6"/>
      <stop offset="1" stop-color="#6366f1"/>
    </linearGradient>
  </defs>
  <rect x="8" y="8" width="48" height="48" rx="14" fill="url(#g)"/>
  <path d="M22 40V24h7.5c2.7 0 4.8.7 6.2 2.1 1.4 1.4 2.1 3.2 2.1 5.4 0 2.2-.7 4-2.1 5.4-1.4 1.4-3.5 2.1-6.2 2.1H22Zm6-5h1.6c1.4 0 2.5-.3 3.2-1 .7-.7 1.1-1.6 1.1-2.9 0-1.3-.4-2.2-1.1-2.9-.7-.7-1.8-1-3.2-1H28v7.8Z" fill="#fff"/>
  <path d="M44.2 20.3 41.7 18l-6.4 6.9 2.5 2.3 6.4-6.9Z" fill="#fff" opacity=".9"/>
</svg>
